<svg xmlns="http://www.w3.org/2000/svg" viewBox="0 0 400 400">
  <defs>
    <linearGradient id="bgGradient" x1="0%" y1="0%" x2="100%" y2="100%">
      <stop offset="0%" style="stop-color:#1e3a8a;stop-opacity:1" /> <!-- Blue 900 -->
      <stop offset="100%" style="stop-color:#3b82f6;stop-opacity:1" /> <!-- Blue 500 -->
    </linearGradient>
    <linearGradient id="redGradient" x1="0%" y1="0%" x2="100%" y2="100%">
      <stop offset="0%" style="stop-color:#dc2626;stop-opacity:1" /> <!-- Red 600 -->
      <stop offset="100%" style="stop-color:#ef4444;stop-opacity:1" /> <!-- Red 500 -->
    </linearGradient>
    <filter id="shadow" x="-10%" y="-10%" width="120%" height="120%">
      <feDropShadow dx="0" dy="8" stdDeviation="12" flood-color="#000000" flood-opacity="0.2"/>
    </filter>
  </defs>

  <!-- Outer Navy Ring -->
  <circle cx="200" cy="200" r="190" fill="url(#bgGradient)" stroke="#ffffff" stroke-width="8" filter="url(#shadow)" />
  
  <!-- Inner White Ring -->
  <circle cx="200" cy="200" r="140" fill="#ffffff" stroke="url(#redGradient)" stroke-width="12" />

  <!-- Stars -->
  <path d="M 70,220 L 80,250 L 50,230 L 90,230 L 60,250 Z" fill="#ffffff" />
  <path d="M 330,220 L 340,250 L 310,230 L 350,230 L 320,250 Z" fill="#ffffff" />

  <!-- Text: Municipality Of Pinamungajan -->
  <path id="topTextPath" d="M 60,200 A 140,140 0 0,1 340,200" fill="none" />
  <text font-family="Arial, sans-serif" font-weight="900" font-size="28" fill="#ffffff" letter-spacing="4">
    <textPath href="#topTextPath" startOffset="50%" text-anchor="middle">MUNICIPALITY OF PINAMUNGAJAN</textPath>
  </text>

  <!-- Text: Province Of Cebu -->
  <path id="bottomTextPath" d="M 320,200 A 120,120 0 0,1 80,200" fill="none" />
  <text font-family="Arial, sans-serif" font-weight="900" font-size="26" fill="#ffffff" letter-spacing="3">
    <textPath href="#bottomTextPath" startOffset="50%" text-anchor="middle">PROVINCE OF CEBU</textPath>
  </text>

  <!-- Inner HR Symbolism -->
  <!-- A minimal modern representation of a "person and documents" or HR network -->
  <g transform="translate(130, 110)">
    <!-- Document background -->
    <rect x="30" y="20" width="80" height="100" rx="8" fill="#f1f5f9" stroke="url(#bgGradient)" stroke-width="6"/>
    <!-- Document lines -->
    <line x1="45" y1="45" x2="95" y2="45" stroke="#94a3b8" stroke-width="4" stroke-linecap="round"/>
    <line x1="45" y1="65" x2="95" y2="65" stroke="#94a3b8" stroke-width="4" stroke-linecap="round"/>
    <line x1="45" y1="85" x2="75" y2="85" stroke="#94a3b8" stroke-width="4" stroke-linecap="round"/>
    <!-- Abstract Person Icon representing employees -->
    <circle cx="70" cy="110" r="28" fill="url(#bgGradient)" stroke="#ffffff" stroke-width="4" />
    <path d="M 20,170 C 20,140 120,140 120,170" fill="url(#bgGradient)" stroke="#ffffff" stroke-width="4" />
  </g>
</svg>
